HIERARCHY
ROOT Hips
{
	OFFSET	0.00	0.00	0.00
	CHANNELS 6 Xposition Yposition Zposition Zrotation Xrotation Yrotation
	JOINT LeftUpLeg
	{
		OFFSET	 3.43	 0.00	 0.00
		CHANNELS 3 Zrotation Xrotation Yrotation
		JOINT LeftLowLeg
		{
			OFFSET	 0.00	-18.47	 0.00
			CHANNELS 3 Zrotation Xrotation Yrotation
			JOINT LeftFoot
			{
				OFFSET	 0.00	-17.95	 0.00
				CHANNELS 3 Zrotation Xrotation Yrotation
				End Site 
				{
					OFFSET	 0.00	-3.12	 0.00
				}
			}
		}
	}
	JOINT RightUpLeg
	{
		OFFSET	-3.43	 0.00	 0.00
		CHANNELS 3 Zrotation Xrotation Yrotation
		JOINT RightLowLeg
		{
			OFFSET	 0.00	-18.81	 0.00
			CHANNELS 3 Zrotation Xrotation Yrotation
			JOINT RightFoot
			{
				OFFSET	 0.00	-17.57	 0.00
				CHANNELS 3 Zrotation Xrotation Yrotation
				End Site 
				{
					OFFSET	 0.00	-3.25	 0.00
				}
			}
		}
	}
	JOINT Chest
	{
		OFFSET	 0.00	 4.57	 0.00
		CHANNELS 3 Zrotation Xrotation Yrotation
		JOINT LeftCollar
		{
			OFFSET	 1.06	 15.33	 1.76
			CHANNELS 3 Zrotation Xrotation Yrotation
			JOINT LeftUpArm
			{
				OFFSET	 5.81	 0.00	 0.00
				CHANNELS 3 Zrotation Xrotation Yrotation
				JOINT LeftLowArm
				{
					OFFSET	 0.00	-12.08	 0.00
					CHANNELS 3 Zrotation Xrotation Yrotation
					JOINT LeftHand
					{
						OFFSET	 0.00	-9.82	 0.00
						CHANNELS 3 Zrotation Xrotation Yrotation
						End Site 
						{
							OFFSET	 0.00	-7.37	 0.00
						}
					}
				}
			}
		}
		JOINT RightCollar
		{
			OFFSET	-1.06	 15.33	 1.76
			CHANNELS 3 Zrotation Xrotation Yrotation
			JOINT RightUpArm
			{
				OFFSET	-6.06	 0.00	 0.00
				CHANNELS 3 Zrotation Xrotation Yrotation
				JOINT RightLowArm
				{
					OFFSET	 0.00	-11.90	 0.00
					CHANNELS 3 Zrotation Xrotation Yrotation
					JOINT RightHand
					{
						OFFSET	 0.00	-9.52	 0.00
						CHANNELS 3 Zrotation Xrotation Yrotation
						End Site 
						{
							OFFSET	 0.00	-7.14	 0.00
						}
					}
				}
			}
		}
		JOINT Neck
		{
			OFFSET	 0.00	 17.62	 0.00
			CHANNELS 3 Zrotation Xrotation Yrotation
			JOINT Head
			{
				OFFSET	 0.00	 5.19	 0.00
				CHANNELS 3 Zrotation Xrotation Yrotation
				End Site 
				{
					OFFSET	 0.00	 4.14	 0.00
				}
			}
		}
	}
}

MOTION
Frames: 32
Frame Time: 0.03
-40.49 1.92 -49.43 -1.25 -0.17 33.91 15.80 -9.59 18.35 3.89 13.48 -1.93 -20.01 0.37 -0.83 -15.91 0.98 -26.36 -2.86 12.93 5.18 11.38 -8.50 7.81 5.66 8.29 1.22 0 0 0 11.46 4.04 7.47 -76.58 -46.62 -56.46 37.11 -13.76 -7.84 0 0 0 -12.96 -12.96 12.67 52.61 -57.36 40.34 -47.20 -16.52 12.61 0 0 0 -5.03 5.36 24.19 
-40.49 1.92 -49.43 -1.25 -0.15 33.93 15.73 -9.67 18.08 3.88 13.44 -1.92 -19.98 0.37 -0.57 -15.89 0.95 -26.05 -2.82 12.87 5.17 11.34 -8.48 7.46 5.63 8.18 1.28 0 0 0 11.33 4.38 7.74 -76.76 -46.60 -56.51 36.46 -14.41 -8.26 0 0 0 -13.04 -12.57 12.22 53.16 -57.33 40.77 -46.72 -17.32 12.74 0 0 0 -4.98 5.43 24.13 
-40.49 1.92 -49.43 -1.26 -0.12 33.94 15.66 -9.73 17.91 3.90 13.42 -1.95 -19.98 0.36 -0.38 -15.89 0.91 -25.85 -2.80 12.85 5.16 11.30 -8.48 7.24 5.61 8.07 1.36 0 0 0 11.16 4.60 8.05 -76.83 -46.49 -56.56 36.00 -14.84 -8.57 0 0 0 -13.09 -12.32 11.95 53.46 -57.30 40.98 -46.40 -17.76 12.78 0 0 0 -4.93 5.45 24.05 
-40.49 1.93 -49.43 -1.26 -0.09 33.96 15.59 -9.76 17.79 3.92 13.39 -1.93 -19.97 0.34 -0.28 -15.89 0.87 -25.76 -2.78 12.84 5.18 11.28 -8.50 7.12 5.59 8.00 1.41 0 0 0 11.03 4.77 8.24 -76.83 -46.44 -56.57 35.93 -14.84 -8.80 0 0 0 -13.14 -12.16 11.81 53.55 -57.20 41.11 -46.17 -17.54 12.66 0 0 0 -4.90 5.45 23.97 
-40.49 1.94 -49.43 -1.26 -0.04 33.99 15.49 -9.81 17.68 3.93 13.32 -2.00 -19.93 0.34 -0.12 -15.87 0.87 -25.57 -2.78 12.77 5.16 11.25 -8.49 6.88 5.55 7.88 1.50 0 0 0 10.83 5.06 8.51 -76.80 -46.31 -56.53 35.70 -14.94 -9.08 0 0 0 -13.28 -11.88 11.64 53.74 -57.08 41.30 -46.03 -17.55 12.51 0 0 0 -4.85 5.52 23.86 
-40.50 1.93 -49.43 -1.25 -0.00 34.03 15.45 -9.82 17.77 3.93 13.24 -2.07 -19.90 0.40 -0.14 -15.85 0.93 -25.51 -2.78 12.64 5.21 11.24 -8.49 6.73 5.53 7.77 1.60 0 0 0 10.63 5.32 8.69 -76.76 -46.17 -56.49 35.64 -14.82 -9.22 0 0 0 -13.43 -11.58 11.70 53.76 -57.16 41.25 -45.97 -17.42 12.45 0 0 0 -4.79 5.55 23.72 
-40.5 1.94 -49.43 -1.25 0.05 34.07 15.40 -9.84 17.86 3.94 13.18 -2.09 -19.88 0.45 -0.22 -15.88 1.00 -25.69 -2.79 12.52 5.44 11.24 -8.50 6.62 5.51 7.70 1.71 0 0 0 10.44 5.56 8.73 -76.71 -46.12 -56.41 35.58 -14.72 -9.31 0 0 0 -13.58 -11.29 11.71 53.82 -57.20 41.31 -45.97 -17.14 12.39 0 0 0 -4.74 5.68 23.55 
-40.50 1.94 -49.44 -1.23 0.09 34.11 15.38 -9.79 18.10 3.94 13.11 -2.10 -19.87 0.52 -0.48 -15.90 1.11 -26.00 -2.80 12.42 5.54 11.24 -8.49 6.78 5.49 7.70 1.80 0 0 0 10.31 5.67 8.67 -76.58 -46.02 -56.36 35.98 -14.11 -9.21 0 0 0 -13.74 -11.24 11.91 53.56 -57.19 41.10 -46.29 -16.45 12.21 0 0 0 -4.68 5.73 23.39 
-40.51 1.94 -49.44 -1.21 0.16 34.20 15.30 -9.82 18.06 3.94 13.05 -2.02 -19.85 0.58 -0.56 -15.93 1.08 -25.99 -2.80 12.46 5.45 11.21 -8.53 6.78 5.44 7.61 1.81 0 0 0 10.28 5.75 8.50 -76.43 -46.00 -56.28 36.12 -13.95 -9.01 0 0 0 -13.77 -11.18 12.10 53.54 -57.37 40.99 -46.28 -16.14 12.44 0 0 0 -4.61 5.89 23.27 
-40.51 1.95 -49.43 -1.18 0.21 34.30 15.18 -9.82 17.97 3.95 12.97 -1.97 -19.84 0.63 -0.61 -15.96 1.08 -26.02 -2.80 12.50 5.41 11.22 -8.60 6.73 5.36 7.50 1.77 0 0 0 10.40 5.90 8.31 -76.33 -46.07 -56.21 36.19 -13.75 -8.82 0 0 0 -13.74 -11.13 12.26 53.56 -57.51 40.93 -46.17 -15.80 12.75 0 0 0 -4.52 6.12 23.18 
-40.51 1.95 -49.42 -1.14 0.26 34.39 15.09 -9.84 17.90 3.95 12.89 -1.97 -19.82 0.68 -0.62 -15.99 1.10 -26.00 -2.79 12.52 5.36 11.23 -8.66 6.65 5.26 7.36 1.75 0 0 0 10.61 6.01 8.17 -76.26 -46.09 -56.13 36.00 -13.84 -8.59 0 0 0 -13.69 -11.05 12.37 53.69 -57.73 40.86 -46.07 -15.95 13.17 0 0 0 -4.43 6.37 23.10 
-40.50 1.95 -49.41 -1.11 0.30 34.50 14.99 -9.87 17.74 3.96 12.83 -1.95 -19.82 0.72 -0.56 -16.01 1.09 -25.86 -2.76 12.57 5.26 11.22 -8.73 6.47 5.17 7.22 1.72 0 0 0 10.84 6.09 8.02 -76.19 -46.15 -56.05 35.82 -14.01 -8.48 0 0 0 -13.57 -10.94 12.38 53.98 -57.94 40.98 -45.83 -15.84 13.61 0 0 0 -4.34 6.59 23.03 
-40.50 1.96 -49.40 -1.10 0.35 34.61 14.93 -9.81 17.63 3.94 12.67 -2.01 -19.84 0.74 -0.47 -16.00 1.14 -25.78 -2.73 12.53 5.26 11.21 -8.79 6.26 5.09 7.07 1.64 0 0 0 11.10 6.16 7.94 -76.15 -46.27 -55.94 35.65 -14.00 -8.62 0 0 0 -13.45 -10.85 12.47 54.17 -58.04 41.00 -45.69 -15.61 13.81 0 0 0 -4.24 6.83 23.01 
-40.49 1.96 -49.39 -1.08 0.36 34.70 14.89 -9.72 17.56 3.94 12.54 -2.02 -19.86 0.77 -0.48 -15.96 1.22 -25.71 -2.71 12.47 5.27 11.18 -8.83 6.07 5.00 6.90 1.57 0 0 0 11.37 6.20 7.95 -76.10 -46.31 -55.87 35.59 -13.95 -8.73 0 0 0 -13.29 -10.77 12.68 54.21 -58.10 40.88 -45.63 -15.46 13.92 0 0 0 -4.17 6.97 23.01 
-40.49 1.97 -49.38 -1.09 0.38 34.79 14.87 -9.65 17.50 3.95 12.39 -2.04 -19.90 0.81 -0.47 -15.89 1.28 -25.65 -2.71 12.41 5.25 11.17 -8.87 5.90 4.94 6.74 1.50 0 0 0 11.63 6.18 7.90 -76.03 -46.35 -55.79 35.57 -13.92 -8.78 0 0 0 -13.13 -10.71 12.85 54.29 -58.16 40.81 -45.57 -15.34 14.04 0 0 0 -4.13 7.13 22.96 
-40.48 1.97 -49.36 -1.12 0.38 34.84 14.95 -9.52 17.67 3.93 12.27 -2.08 -19.94 0.85 -0.64 -15.81 1.48 -25.89 -2.72 12.22 5.43 11.20 -8.88 5.90 4.92 6.69 1.49 0 0 0 11.85 6.06 7.82 -75.93 -46.36 -55.70 35.71 -13.62 -8.73 0 0 0 -13.05 -10.75 13.15 54.02 -58.09 40.54 -45.85 -15.14 13.79 0 0 0 -4.11 7.18 22.92 
-40.47 1.98 -49.35 -1.16 0.36 34.90 15.05 -9.48 17.67 3.88 12.22 -1.98 -19.98 0.90 -0.78 -15.69 1.60 -26.02 -2.75 12.06 5.48 11.20 -8.85 5.91 4.96 6.68 1.49 0 0 0 11.98 5.88 7.64 -75.85 -46.36 -55.61 35.89 -13.53 -8.64 0 0 0 -13.04 -10.81 13.41 53.75 -58.02 40.28 -46.09 -15.14 13.51 0 0 0 -4.13 7.19 22.87 
-40.47 1.98 -49.33 -1.20 0.34 34.95 15.16 -9.43 17.65 3.85 12.18 -1.91 -20.03 0.92 -0.88 -15.56 1.73 -26.15 -2.79 11.90 5.53 11.20 -8.83 5.92 5.01 6.68 1.46 0 0 0 12.06 5.73 7.44 -75.77 -46.38 -55.53 36.06 -13.43 -8.58 0 0 0 -13.04 -10.90 13.64 53.49 -57.92 40.02 -46.29 -15.14 13.24 0 0 0 -4.15 7.17 22.81 
-40.47 1.98 -49.32 -1.27 0.33 35.01 15.29 -9.37 17.58 3.81 12.12 -1.78 -20.08 0.96 -0.98 -15.41 1.86 -26.26 -2.81 11.73 5.56 11.19 -8.80 5.92 5.07 6.67 1.42 0 0 0 12.11 5.61 7.27 -75.76 -46.43 -55.52 36.18 -13.25 -8.51 0 0 0 -13.04 -10.97 13.82 53.20 -57.86 39.72 -46.50 -15.14 13.13 0 0 0 -4.18 7.18 22.76 
-40.48 1.98 -49.29 -1.34 0.30 35.08 15.42 -9.40 17.56 3.78 12.12 -1.77 -20.12 0.99 -1.02 -15.25 1.91 -26.25 -2.85 11.63 5.47 11.18 -8.78 5.92 5.14 6.67 1.40 0 0 0 12.15 5.52 7.13 -75.78 -46.42 -55.55 36.32 -13.22 -8.25 0 0 0 -13.01 -11.03 13.76 53.14 -57.73 39.71 -46.60 -15.36 13.15 0 0 0 -4.21 7.18 22.69 
-40.49 1.99 -49.27 -1.44 0.31 35.14 15.58 -9.43 17.51 3.73 12.07 -1.81 -20.17 1.02 -0.97 -15.06 1.98 -26.27 -2.87 11.44 5.41 11.18 -8.73 5.89 5.22 6.64 1.37 0 0 0 12.18 5.45 7.03 -75.78 -46.41 -55.57 36.36 -13.19 -8.00 0 0 0 -13.01 -11.09 13.72 53.12 -57.68 39.74 -46.70 -15.48 13.21 0 0 0 -4.25 7.21 22.63 
-40.51 1.99 -49.23 -1.54 0.30 35.20 15.75 -9.46 17.47 3.68 12.01 -1.84 -20.22 1.05 -0.92 -14.85 2.07 -26.26 -2.89 11.18 5.35 11.15 -8.62 5.83 5.28 6.59 1.33 0 0 0 12.20 5.44 7.00 -75.80 -46.40 -55.59 36.38 -13.16 -7.81 0 0 0 -12.99 -11.13 13.71 53.08 -57.62 39.74 -46.82 -15.63 13.27 0 0 0 -4.27 7.26 22.60 
-40.53 2.00 -49.20 -1.76 0.45 35.18 15.96 -9.62 17.56 3.65 11.95 -1.91 -20.32 1.06 -0.83 -14.62 1.97 -26.19 -2.92 10.86 5.32 11.15 -8.50 5.70 5.34 6.36 1.38 0 0 0 12.21 5.43 7.00 -75.82 -46.38 -55.60 36.47 -13.20 -7.54 0 0 0 -12.96 -11.17 13.72 53.04 -57.56 39.75 -46.89 -15.69 13.36 0 0 0 -4.29 7.33 22.60 
-40.55 2.01 -49.16 -1.96 0.55 35.18 16.24 -9.78 17.65 3.61 11.86 -2.08 -20.44 1.11 -0.67 -14.39 1.92 -26.09 -2.93 10.55 5.30 11.13 -8.38 5.53 5.38 6.14 1.40 0 0 0 12.23 5.47 7.01 -75.82 -46.37 -55.61 36.55 -13.13 -7.29 0 0 0 -12.92 -11.14 13.73 53.04 -57.51 39.80 -47.05 -15.71 13.42 0 0 0 -4.29 7.43 22.58 
-40.57 2.02 -49.11 -2.15 0.64 35.16 16.51 -9.94 17.78 3.57 11.75 -2.21 -20.54 1.21 -0.56 -14.17 1.88 -25.96 -2.92 10.22 5.25 11.10 -8.25 5.36 5.39 5.88 1.45 0 0 0 12.24 5.56 7.01 -75.84 -46.35 -55.64 36.62 -13.07 -7.04 0 0 0 -12.86 -11.06 13.76 53.07 -57.48 39.88 -47.20 -15.73 13.48 0 0 0 -4.25 7.61 22.58 
-40.58 2.04 -49.07 -2.33 0.74 35.15 16.75 -10.11 17.87 3.53 11.65 -2.33 -20.64 1.31 -0.42 -13.96 1.83 -25.81 -2.92 9.91 5.20 11.08 -8.14 5.20 5.39 5.62 1.51 0 0 0 12.25 5.65 7.00 -75.85 -46.34 -55.67 36.58 -13.22 -6.80 0 0 0 -12.80 -10.99 13.77 53.13 -57.45 39.97 -47.16 -16.10 13.54 0 0 0 -4.19 7.75 22.59 
-40.58 2.06 -49.04 -2.50 0.84 35.11 16.81 -10.08 17.84 3.55 11.48 -2.28 -20.70 1.28 -0.37 -13.79 1.74 -25.61 -2.92 9.68 5.11 11.07 -8.04 5.05 5.37 5.39 1.59 0 0 0 12.22 5.70 7.01 -75.81 -46.31 -55.69 36.23 -13.15 -6.65 0 0 0 -12.76 -10.98 13.75 53.16 -57.40 40.05 -47.19 -16.18 13.62 0 0 0 -4.14 7.87 22.59 
-40.59 2.07 -49.02 -2.63 0.92 35.06 16.86 -10.09 17.95 3.59 11.40 -2.26 -20.75 1.26 -0.42 -13.67 1.62 -25.44 -2.92 9.58 5.05 11.05 -8.00 4.95 5.34 5.17 1.69 0 0 0 12.19 5.76 7.02 -75.77 -46.27 -55.71 35.85 -13.14 -6.54 0 0 0 -12.73 -10.97 13.70 53.21 -57.33 40.16 -47.16 -16.25 13.66 0 0 0 -4.07 7.96 22.59 
-40.59 2.07 -49.00 -2.75 1.01 35.00 16.89 -10.10 18.07 3.63 11.34 -2.23 -20.79 1.22 -0.49 -13.60 1.49 -25.30 -2.92 9.58 5.02 11.06 -8.05 4.87 5.30 4.96 1.80 0 0 0 12.17 5.79 7.03 -75.74 -46.24 -55.73 35.48 -13.10 -6.44 0 0 0 -12.72 -10.97 13.64 53.24 -57.27 40.25 -47.11 -16.16 13.67 0 0 0 -4.01 8.03 22.57 
-40.59 2.07 -48.99 -2.75 0.93 35.02 16.88 -9.94 18.12 3.65 11.27 -2.25 -20.78 1.21 -0.60 -13.54 1.57 -25.21 -2.91 9.61 4.94 11.05 -8.10 4.86 5.27 4.94 1.81 0 0 0 12.15 5.80 7.01 -75.71 -46.21 -55.75 35.13 -12.87 -6.46 0 0 0 -12.73 -10.96 13.56 53.27 -57.21 40.35 -47.15 -15.93 13.56 0 0 0 -3.95 8.10 22.55 
-40.58 2.07 -48.98 -2.77 0.92 35.02 16.81 -9.74 18.33 3.68 11.17 -2.24 -20.74 1.18 -0.84 -13.51 1.65 -25.22 -2.91 9.59 4.94 11.07 -8.15 4.89 5.24 4.90 1.85 0 0 0 12.13 5.77 7.00 -75.69 -46.19 -55.79 34.89 -12.65 -6.45 0 0 0 -12.74 -10.97 13.55 53.29 -57.19 40.42 -47.18 -15.78 13.40 0 0 0 -3.91 8.13 22.55 
-40.57 2.07 -48.98 -2.79 0.91 35.02 16.76 -9.59 18.39 3.69 11.12 -2.14 -20.71 1.12 -1.02 -13.48 1.71 -25.26 -2.91 9.58 4.95 11.08 -8.21 4.92 5.24 4.90 1.87 0 0 0 12.10 5.70 6.99 -75.68 -46.18 -55.81 34.69 -12.43 -6.41 0 0 0 -12.77 -11.00 13.54 53.29 -57.19 40.49 -47.21 -15.66 13.27 0 0 0 -3.92 8.13 22.56 
